<?xml version="1.0" encoding="UTF-8" standalone="no"?>
<!DOCTYPE svg PUBLIC "-//W3C//DTD SVG 1.1//EN" "http://www.w3.org/Graphics/SVG/1.1/DTD/svg11.dtd">
<svg xmlns="http://www.w3.org/2000/svg" version="1.1" viewBox="0.00 0.00 402.00 71.00">
<path fill="#268035" d="
  M 394.91 15.46
  A 1.08 1.08 0.0 0 1 392.91 15.49
  L 391.90 13.12
  A 1.17 1.02 -79.7 0 0 391.71 12.80
  Q 389.16 9.61 385.56 11.23
  Q 384.67 11.63 383.26 14.13
  A 3.24 3.22 -29.1 0 0 382.86 15.52
  L 382.31 26.65
  A 0.58 0.58 0.0 0 0 382.89 27.26
  L 390.77 27.26
  A 0.83 0.82 90.0 0 1 391.59 28.09
  L 391.59 30.34
  A 1.44 1.44 0.0 0 1 390.15 31.78
  L 383.29 31.78
  A 0.75 0.75 0.0 0 0 382.54 32.53
  L 382.54 54.44
  A 3.37 3.36 -75.1 0 0 384.23 57.36
  L 386.63 58.74
  A 1.22 1.22 0.0 0 1 385.98 61.01
  L 370.66 60.51
  A 0.70 0.70 0.0 0 1 370.41 59.16
  C 373.38 57.37 374.63 57.17 374.73 53.25
  Q 374.88 47.42 374.86 32.43
  A 0.81 0.81 0.0 0 0 374.05 31.62
  L 370.62 31.62
  A 1.07 1.07 0.0 0 1 369.55 30.50
  Q 369.63 28.41 373.63 27.78
  A 1.54 1.54 0.0 0 0 374.93 26.16
  C 374.42 18.53 376.55 11.74 383.50 8.15
  A 1.40 1.31 -65.3 0 1 383.77 8.04
  Q 389.91 6.52 395.76 8.72
  A 1.66 1.65 21.0 0 1 396.72 10.87
  L 394.91 15.46
  Z"
/>
<path fill="#268035" d="
  M 350.34 60.62
  A 0.99 0.99 0.0 0 1 350.47 58.79
  C 355.06 57.33 354.43 54.89 354.43 50.09
  Q 354.39 32.63 354.42 17.79
  C 354.43 14.01 354.32 13.88 350.97 12.74
  A 1.28 1.28 0.0 0 1 351.08 10.29
  L 361.17 7.86
  A 0.87 0.86 -6.6 0 1 362.24 8.70
  Q 362.13 38.19 362.49 54.72
  A 3.47 3.46 10.7 0 0 364.62 57.84
  Q 365.90 58.37 366.99 59.68
  A 0.55 0.55 0.0 0 1 366.59 60.59
  Q 357.42 61.03 351.29 60.68
  Q 350.35 60.63 350.34 60.62
  Z"
/>
<path fill="#268035" d="
  M 280.82 57.55
  Q 279.97 52.03 280.89 47.27
  A 1.18 1.17 37.7 0 1 283.10 46.99
  C 284.42 49.71 285.22 51.85 286.83 53.59
  Q 291.29 58.38 298.27 57.27
  Q 304.44 56.30 305.02 50.21
  Q 305.54 44.72 300.12 41.86
  Q 299.15 41.35 289.35 36.69
  Q 284.99 34.62 282.92 29.36
  C 281.10 24.73 282.45 18.87 285.86 15.31
  Q 289.32 11.72 295.44 10.87
  Q 300.45 10.17 306.10 11.69
  Q 309.08 12.50 310.11 13.54
  A 1.41 1.36 -69.3 0 1 310.51 14.47
  L 310.74 23.49
  A 1.13 1.13 0.0 0 1 308.71 24.19
  Q 307.47 22.52 306.52 19.65
  A 4.00 3.83 -70.3 0 0 306.28 19.11
  Q 303.58 14.16 297.22 14.53
  C 288.37 15.06 286.92 25.46 294.57 28.95
  Q 302.07 32.38 304.44 33.52
  Q 312.41 37.33 312.89 45.93
  Q 313.25 52.16 309.45 56.40
  C 307.77 58.28 303.97 60.16 301.17 60.78
  Q 291.09 62.99 281.47 58.42
  A 1.19 1.18 8.5 0 1 280.82 57.55
  Z"
/>
<path fill="#268035" d="
  M 44.98 59.91
  A 0.77 0.77 0.0 0 1 44.21 60.68
  L 10.71 60.68
  A 0.59 0.59 0.0 0 1 10.14 60.25
  Q 9.87 59.29 10.37 58.42
  Q 10.52 58.15 12.12 57.65
  Q 14.04 57.05 15.21 55.47
  A 1.71 1.68 63.9 0 0 15.55 54.45
  L 15.55 18.08
  A 2.76 2.75 10.8 0 0 13.80 15.52
  L 10.74 14.31
  A 1.11 1.11 0.0 0 1 11.14 12.17
  L 28.83 12.17
  A 0.65 0.65 0.0 0 1 29.48 12.82
  L 29.48 13.59
  A 0.96 0.94 -2.7 0 1 28.61 14.53
  Q 24.34 14.93 24.36 19.01
  Q 24.42 33.57 24.36 52.27
  Q 24.35 53.74 25.69 55.82
  A 1.35 1.31 -7.5 0 0 26.46 56.39
  Q 31.66 57.81 37.12 56.12
  Q 37.95 55.86 39.89 54.16
  A 2.37 2.33 -5.8 0 0 40.24 53.74
  L 42.99 49.07
  A 0.87 0.86 15.0 0 1 43.74 48.64
  L 44.36 48.64
  A 0.62 0.62 0.0 0 1 44.98 49.26
  L 44.98 59.91
  Z"
/>
<path fill="#268035" d="
  M 167.63 12.71
  C 168.11 11.88 175.80 12.17 182.40 12.18
  A 0.84 0.83 85.5 0 1 183.22 12.89
  Q 183.37 13.93 182.32 14.31
  Q 178.47 15.71 176.80 18.76
  Q 172.32 26.91 165.68 38.30
  A 5.70 5.61 -30.2 0 0 164.90 41.16
  Q 164.87 50.45 164.88 52.28
  Q 164.89 55.00 165.85 56.20
  A 2.17 2.12 83.1 0 0 166.82 56.98
  L 170.90 58.63
  A 1.06 1.06 0.0 0 1 170.51 60.67
  Q 154.36 60.74 151.74 60.66
  Q 151.36 60.64 151.11 60.54
  A 1.06 1.06 0.0 0 1 151.21 58.55
  Q 153.70 57.77 155.48 56.29
  A 1.86 1.83 70.4 0 0 156.14 54.87
  L 156.14 41.56
  A 4.77 4.70 -60.1 0 0 155.53 39.23
  Q 151.78 32.61 144.84 19.94
  Q 142.30 15.31 137.85 14.31
  A 1.07 1.07 0.0 0 1 138.08 12.20
  Q 152.56 12.12 155.75 12.22
  Q 156.13 12.23 156.21 12.30
  A 1.17 1.17 0.0 0 1 155.81 14.28
  L 153.55 15.09
  A 1.91 1.91 0.0 0 0 152.53 17.84
  L 162.25 34.67
  A 0.41 0.41 0.0 0 0 162.96 34.67
  Q 168.25 25.79 171.53 19.80
  Q 172.11 18.73 171.71 16.26
  A 1.20 1.18 6.3 0 0 170.97 15.35
  Q 168.70 14.46 168.36 14.34
  A 1.22 1.10 23.9 0 1 167.63 12.71
  Z"
/>
<path fill="#268035" d="
  M 65.8984 25.9644
  A 17.90 16.77 -87.7 0 1 81.9365 44.5230
  A 17.90 16.77 -87.7 0 1 64.4616 61.7356
  A 17.90 16.77 -87.7 0 1 48.4235 43.1770
  A 17.90 16.77 -87.7 0 1 65.8984 25.9644
  Z
  M 64.6680 29.0599
  A 14.79 8.60 -92.1 0 0 56.6158 44.1551
  A 14.79 8.60 -92.1 0 0 65.7520 58.6201
  A 14.79 8.60 -92.1 0 0 73.8042 43.5249
  A 14.79 8.60 -92.1 0 0 64.6680 29.0599
  Z"
/>
<path fill="#268035" d="
  M 194.8801 26.0181
  A 17.90 16.67 -85.0 0 1 209.9266 45.3029
  A 17.90 16.67 -85.0 0 1 191.7599 61.6819
  A 17.90 16.67 -85.0 0 1 176.7134 42.3971
  A 17.90 16.67 -85.0 0 1 194.8801 26.0181
  Z
  M 192.9089 29.0465
  A 14.87 8.45 -91.7 0 0 184.9037 44.1607
  A 14.87 8.45 -91.7 0 0 193.7911 58.7735
  A 14.87 8.45 -91.7 0 0 201.7963 43.6593
  A 14.87 8.45 -91.7 0 0 192.9089 29.0465
  Z"
/>
<path fill="#268035" d="
  M 236.79 56.00
  L 232.24 59.79
  A 2.24 2.23 13.1 0 1 231.69 60.13
  Q 225.72 62.74 220.60 59.93
  C 217.19 58.06 216.31 53.60 216.32 49.54
  Q 216.35 35.42 216.35 34.76
  Q 216.36 31.25 213.46 30.32
  A 1.53 1.52 51.0 0 1 213.77 27.35
  L 223.64 26.37
  A 0.49 0.49 0.0 0 1 224.18 26.86
  Q 224.12 43.58 224.33 49.46
  C 224.41 51.69 224.99 53.65 227.18 54.74
  C 231.03 56.66 236.66 54.64 236.83 49.86
  Q 237.08 42.83 236.84 32.90
  A 2.40 2.39 -80.0 0 0 235.32 30.73
  L 233.40 29.98
  A 1.29 1.29 0.0 0 1 233.74 27.50
  L 243.83 26.50
  A 0.81 0.80 -3.6 0 1 244.72 27.28
  Q 244.98 37.13 244.76 52.75
  Q 244.70 56.97 247.90 57.55
  A 1.32 1.32 0.0 0 1 247.79 60.16
  L 237.77 61.16
  A 0.53 0.52 -3.0 0 1 237.19 60.64
  L 237.19 56.19
  A 0.25 0.24 70.0 0 0 236.79 56.00
  Z"
/>
<path fill="#268035" d="
  M 265.06 31.54
  C 268.22 28.06 271.68 24.82 276.55 26.70
  A 2.51 2.51 0.0 0 1 278.13 29.44
  L 277.32 34.45
  A 1.57 1.57 0.0 0 1 274.57 35.21
  L 272.64 32.90
  A 2.91 2.91 0.0 0 0 269.57 31.97
  Q 265.24 33.27 264.68 38.26
  Q 264.51 39.78 264.62 51.79
  C 264.64 55.09 264.28 57.51 268.23 58.52
  A 1.26 1.17 29.4 0 1 268.88 60.55
  Q 268.81 60.62 268.13 60.63
  Q 255.77 60.77 253.56 60.61
  Q 252.74 60.55 252.62 60.47
  A 0.99 0.99 0.0 0 1 252.94 58.70
  C 257.31 57.53 256.77 55.14 256.80 50.77
  Q 256.87 40.88 256.68 33.45
  A 2.82 2.65 6.5 0 0 254.54 30.92
  Q 253.46 30.65 252.91 30.22
  A 1.05 1.05 0.0 0 1 253.31 28.38
  L 263.35 25.97
  A 0.93 0.92 83.1 0 1 264.49 26.87
  L 264.49 31.33
  A 0.33 0.32 -24.3 0 0 265.06 31.54
  Z"
/>
<path fill="#268035" d="
  M 121.75 43.32
  Q 121.94 51.35 127.51 54.70
  C 132.11 57.47 136.84 55.68 140.12 51.87
  A 1.18 1.18 0.0 0 1 141.81 51.78
  L 141.86 51.83
  A 1.57 1.56 -51.9 0 1 142.10 53.84
  Q 136.52 62.24 127.52 61.42
  C 109.87 59.82 109.77 33.94 123.49 27.52
  C 128.14 25.34 135.06 25.81 138.97 29.45
  C 142.28 32.52 143.47 37.34 143.53 41.56
  A 1.01 1.01 0.0 0 1 142.52 42.59
  L 122.47 42.59
  A 0.72 0.72 0.0 0 0 121.75 43.32
  Z
  M 122.31 38.99
  L 135.99 38.97
  A 0.21 0.21 0.0 0 0 136.20 38.76
  L 136.20 38.61
  A 9.32 7.04 89.9 0 0 129.14 29.30
  L 129.12 29.30
  A 9.32 7.04 89.9 0 0 122.10 38.63
  L 122.10 38.78
  A 0.21 0.21 0.0 0 0 122.31 38.99
  Z"
/>
<path fill="#268035" d="
  M 326.13 42.61
  A 0.72 0.72 0.0 0 0 325.41 43.33
  Q 325.59 51.35 331.15 54.71
  C 335.74 57.48 340.47 55.70 343.75 51.90
  A 1.18 1.17 -47.9 0 1 345.43 51.81
  L 345.48 51.86
  A 1.57 1.56 -51.8 0 1 345.72 53.87
  Q 340.14 62.25 331.15 61.42
  C 313.53 59.79 313.46 33.95 327.17 27.56
  C 331.82 25.39 338.73 25.87 342.63 29.51
  C 345.93 32.58 347.11 37.39 347.17 41.61
  A 1.01 1.01 0.0 0 1 346.16 42.63
  L 326.13 42.61
  Z
  M 326.30 38.98
  L 339.30 38.96
  A 0.44 0.44 0.0 0 0 339.74 38.52
  L 339.74 38.16
  A 8.82 6.84 89.9 0 0 332.88 29.35
  L 332.68 29.35
  A 8.82 6.84 89.9 0 0 325.86 38.18
  L 325.86 38.54
  A 0.44 0.44 0.0 0 0 326.30 38.98
  Z"
/>
<path fill="#268035" d="
  M 98.89 50.14
  A 0.57 0.57 0.0 0 0 99.95 50.14
  L 106.83 32.66
  A 2.18 2.18 0.0 0 0 105.60 29.84
  L 103.80 29.13
  A 0.97 0.97 0.0 0 1 104.16 27.26
  L 114.63 27.26
  A 0.78 0.77 85.1 0 1 115.39 27.91
  Q 115.46 28.30 115.31 28.74
  Q 115.22 29.01 114.71 29.31
  Q 111.76 31.03 111.35 32.04
  Q 102.67 53.32 101.16 56.93
  Q 100.10 59.45 99.28 60.89
  A 1.43 1.41 4.5 0 1 98.51 61.54
  Q 96.01 62.38 94.79 59.46
  Q 89.85 47.54 85.67 36.56
  C 84.56 33.64 83.69 30.83 80.88 29.35
  A 1.14 1.14 0.0 0 1 81.07 27.25
  Q 81.36 27.16 82.75 27.19
  Q 84.95 27.24 94.75 27.23
  Q 95.26 27.23 95.40 27.32
  A 1.08 1.08 0.0 0 1 95.04 29.28
  L 92.97 29.75
  A 1.55 1.54 -16.8 0 0 91.86 31.81
  L 98.89 50.14
  Z"
/>
</svg>
